<svg width="256" height="256" viewBox="0 0 256 256" fill="none" xmlns="http://www.w3.org/2000/svg">
<g clip-path="url(#clip0_102_8)">
<rect width="256" height="256" fill="white"/>
<path d="M137.872 176.426L162.145 200.699L234.174 128.952C235.329 127.797 235.329 125.908 234.174 124.752L211.885 102.463L137.872 176.426Z" fill="#440047"/>
<path d="M152.751 43.5812L130.288 20.8662C129.133 19.7113 127.244 19.7113 126.088 20.8662L21.8662 125.089C20.7113 126.243 20.7113 128.133 21.8662 129.288L126.044 233.467C127.031 232.48 127.241 231.257 128.714 231.794L152.154 210.69L68.873 127.409L152.751 43.5812Z" fill="#D11067"/>
<path d="M126.044 233.467L44.4547 151.877L68.8729 127.408L152.154 210.69L129.907 232.987C128.713 234.181 126.975 234.397 126.044 233.467Z" fill="#D11067"/>
<path d="M187.12 127.228L211.885 102.463L161.733 52.3115L136.968 77.0765L187.12 127.228Z" fill="#440047"/>
</g>
<defs>
<clipPath id="clip0_102_8">
<rect width="256" height="256" rx="8" fill="white"/>
</clipPath>
</defs>
</svg>
