<svg width="180" height="47" viewBox="0 0 180 47" fill="none" xmlns="http://www.w3.org/2000/svg">
<mask id="mask0_5301_3055" style="mask-type:luminance" maskUnits="userSpaceOnUse" x="4" y="4" width="25" height="24">
<path d="M28.3795 4H4V27.9758H28.3795V4Z" fill="white"/>
</mask>
<g mask="url(#mask0_5301_3055)">
<path d="M16.9594 21.2533L19.6228 23.8727L27.5265 16.1304C27.6532 16.0057 27.6532 15.8018 27.5265 15.6771L25.0807 13.2719L16.9594 21.2533Z" fill="#440047"/>
<path d="M18.592 6.91789L16.1272 4.4667C16.0005 4.34207 15.7931 4.34207 15.6664 4.4667L4.23027 15.7134C4.10354 15.838 4.10354 16.042 4.23027 16.1666L15.6616 27.4086C15.7698 27.3021 15.7929 27.1702 15.9545 27.2281L18.5266 24.9508L9.38824 15.9638L18.592 6.91789Z" fill="#D11067"/>
<path d="M15.6616 27.4086L6.70889 18.6041L9.38825 15.9637L18.5266 24.9507L16.0854 27.3568C15.9544 27.4857 15.7637 27.5089 15.6616 27.4086Z" fill="#D11067"/>
<path d="M22.3633 15.9443L25.0807 13.2719L19.5777 7.85999L16.8602 10.5324L22.3633 15.9443Z" fill="#440047"/>
</g>
<path d="M45.962 25.3118H40.5165L33.6733 5.26538H37.8957L41.6231 17.1214C42.6423 20.3575 42.9335 21.2452 43.2247 22.2189C43.5741 21.2452 43.8653 20.3575 44.8845 17.15L48.6701 5.26538H52.8343L45.962 25.3118Z" fill="#440047"/>
<path d="M59.1056 8.81647H55.32V5.23676H59.1056V8.81647ZM59.0182 25.3118H55.4656V11.0502H59.0182V25.3118Z" fill="#440047"/>
<path d="M72.6921 25.3118H68.3825C66.0238 25.3118 64.7134 23.9372 64.7134 21.6748V13.7708H61.5685V11.0502H64.7134V6.5827H68.2661V11.0502H72.1097V13.7708H68.2661V21.1307C68.2661 22.0471 68.6737 22.4766 69.6056 22.4766H72.6921V25.3118Z" fill="#440047"/>
<path d="M79.2705 25.7414C76.5623 25.7414 74.6404 24.1663 74.6404 21.6462C74.6404 17.6655 79.0084 16.4341 83.755 16.0046V15.5177C83.755 14.1145 82.9687 13.2553 81.1051 13.2553C78.9502 13.2553 78.0475 14.4008 77.6689 15.6609L74.4366 14.8304C74.7569 12.7112 77.0283 10.6207 81.1051 10.6207C85.0945 10.6207 87.2785 12.4535 87.2785 15.9473V21.7035C87.2785 22.3908 87.395 22.5626 88.1521 22.5626H89.4916V25.3118H86.7835C84.9489 25.3118 84.3083 24.4527 84.1335 23.1926C83.2599 24.5386 81.7166 25.7414 79.2705 25.7414ZM80.4353 23.1067C82.1243 23.1067 83.755 21.9898 83.755 19.4411V18.2956C80.7847 18.6106 78.2513 19.2693 78.2513 21.3312C78.2513 22.4194 78.9793 23.1067 80.4353 23.1067Z" fill="#440047"/>
<path d="M95.3894 25.3118H91.8659V5.26538H95.3894V25.3118Z" fill="#440047"/>
<path d="M103.326 8.81647H99.5401V5.23676H103.326V8.81647ZM103.238 25.3118H99.6857V11.0502H103.238V25.3118Z" fill="#440047"/>
<path d="M116.913 25.3118H112.603C110.244 25.3118 108.934 23.9372 108.934 21.6748V13.7708H105.789V11.0502H108.934V6.5827H112.486V11.0502H116.33V13.7708H112.486V21.1307C112.486 22.0471 112.894 22.4766 113.826 22.4766H116.913V25.3118Z" fill="#440047"/>
<path d="M127.014 17.1501L129.053 11.0502H132.751L126.84 27.4596C125.995 29.8652 124.83 30.8962 122.297 30.8962H118.511V28.0038H121.918C122.967 28.0038 123.433 27.6601 123.869 26.486L124.306 25.1973L117.55 11.0502H121.394L124.044 17.1787C125.122 19.6702 125.471 20.3861 125.733 20.9875L127.014 17.1501Z" fill="#440047"/>
<path d="M37.6367 41.1299C35.9961 41.1299 34.8682 40.3369 34.7314 39.1201H35.9482C36.1465 39.7354 36.7344 40.1387 37.6777 40.1387C38.6689 40.1387 39.373 39.667 39.373 38.9971V38.9834C39.373 38.4844 38.9971 38.1357 38.0879 37.917L36.9463 37.6436C35.5654 37.3154 34.9434 36.7139 34.9434 35.6543V35.6475C34.9434 34.4238 36.1191 33.501 37.6846 33.501C39.2295 33.501 40.3027 34.2734 40.4668 35.4766H39.2979C39.1406 34.8955 38.5664 34.4922 37.6777 34.4922C36.8027 34.4922 36.1602 34.9434 36.1602 35.5928V35.6064C36.1602 36.1055 36.5293 36.4199 37.3975 36.6318L38.5322 36.9053C39.9199 37.2402 40.5898 37.8418 40.5898 38.8945V38.9082C40.5898 40.2207 39.3115 41.1299 37.6367 41.1299ZM42.5039 41V30.7051H43.6934V34.7383H43.8027C44.1719 33.959 44.8623 33.501 45.9492 33.501C47.6035 33.501 48.5264 34.4785 48.5264 36.2285V41H47.3369V36.5156C47.3369 35.1895 46.79 34.5537 45.6143 34.5537C44.4385 34.5537 43.6934 35.3467 43.6934 36.6387V41H42.5039ZM52.7031 41.1299C51.3018 41.1299 50.2422 40.2822 50.2422 38.9424V38.9287C50.2422 37.6162 51.2129 36.8574 52.9287 36.7549L55.041 36.625V35.9551C55.041 35.0459 54.4873 34.5537 53.3867 34.5537C52.5049 34.5537 51.9238 34.8818 51.7324 35.4561L51.7256 35.4766H50.5361L50.543 35.4355C50.7344 34.2803 51.8555 33.501 53.4277 33.501C55.2256 33.501 56.2305 34.4238 56.2305 35.9551V41H55.041V39.9131H54.9316C54.4668 40.6992 53.6943 41.1299 52.7031 41.1299ZM51.459 38.915C51.459 39.6602 52.0947 40.0977 52.9492 40.0977C54.1592 40.0977 55.041 39.3047 55.041 38.252V37.582L53.0723 37.7051C51.9512 37.7734 51.459 38.1699 51.459 38.9014V38.915ZM61.125 41.1299C59.2588 41.1299 58.0352 39.6191 58.0352 37.3223V37.3086C58.0352 34.998 59.252 33.501 61.125 33.501C62.1367 33.501 63.0186 34.0068 63.4219 34.793H63.5312V30.7051H64.7207V41H63.5312V39.8242H63.4219C62.9707 40.6445 62.1504 41.1299 61.125 41.1299ZM61.3984 40.0771C62.7383 40.0771 63.5586 39.0244 63.5586 37.3223V37.3086C63.5586 35.6064 62.7383 34.5537 61.3984 34.5537C60.0518 34.5537 59.252 35.5928 59.252 37.3086V37.3223C59.252 39.0381 60.0518 40.0771 61.3984 40.0771ZM70.0186 41.1299C67.9541 41.1299 66.6348 39.6328 66.6348 37.2949V37.2812C66.6348 34.9912 67.9473 33.501 70.0117 33.501C71.8027 33.501 72.876 34.5332 73.0947 35.8457L73.1016 35.8867H71.9189L71.9121 35.8662C71.7275 35.1416 71.0713 34.5537 70.0117 34.5537C68.6855 34.5537 67.8516 35.6201 67.8516 37.2812V37.2949C67.8516 38.9902 68.6992 40.0771 70.0117 40.0771C71.0029 40.0771 71.6318 39.6396 71.9053 38.8193L71.9189 38.7783L73.0947 38.7715L73.0811 38.8467C72.7803 40.1797 71.7891 41.1299 70.0186 41.1299ZM74.8379 41V33.6309H76.0273V34.7383H76.1367C76.5059 33.959 77.1963 33.501 78.2832 33.501C79.9375 33.501 80.8604 34.4785 80.8604 36.2285V41H79.6709V36.5156C79.6709 35.1895 79.124 34.5537 77.9482 34.5537C76.7725 34.5537 76.0273 35.3467 76.0273 36.6387V41H74.8379ZM90.1025 30.7051L86.9854 43.4609H85.8438L88.9609 30.7051H90.1025ZM95.3047 41V31.1357H99.0713C100.972 31.1357 102.216 32.2979 102.216 34.0684V34.082C102.216 35.4492 101.471 36.5156 100.233 36.9053L102.517 41H101.074L98.9619 37.0967H96.5352V41H95.3047ZM96.5352 36.0029H98.9619C100.227 36.0029 100.944 35.3262 100.944 34.123V34.1094C100.944 32.9336 100.179 32.2295 98.9072 32.2295H96.5352V36.0029ZM107.104 41.1299C104.998 41.1299 103.727 39.6533 103.727 37.3428V37.3359C103.727 35.0596 105.025 33.501 107.028 33.501C109.031 33.501 110.248 34.9912 110.248 37.1924V37.6572H104.943C104.978 39.1816 105.818 40.0703 107.131 40.0703C108.129 40.0703 108.744 39.5986 108.942 39.1543L108.97 39.0928H110.159L110.146 39.1475C109.893 40.1455 108.84 41.1299 107.104 41.1299ZM107.021 34.5605C105.928 34.5605 105.094 35.3057 104.964 36.707H109.038C108.915 35.251 108.108 34.5605 107.021 34.5605ZM114.117 41.1299C112.716 41.1299 111.656 40.2822 111.656 38.9424V38.9287C111.656 37.6162 112.627 36.8574 114.343 36.7549L116.455 36.625V35.9551C116.455 35.0459 115.901 34.5537 114.801 34.5537C113.919 34.5537 113.338 34.8818 113.146 35.4561L113.14 35.4766H111.95L111.957 35.4355C112.148 34.2803 113.27 33.501 114.842 33.501C116.64 33.501 117.645 34.4238 117.645 35.9551V41H116.455V39.9131H116.346C115.881 40.6992 115.108 41.1299 114.117 41.1299ZM112.873 38.915C112.873 39.6602 113.509 40.0977 114.363 40.0977C115.573 40.0977 116.455 39.3047 116.455 38.252V37.582L114.486 37.7051C113.365 37.7734 112.873 38.1699 112.873 38.9014V38.915ZM122.833 41.1299C120.769 41.1299 119.449 39.6328 119.449 37.2949V37.2812C119.449 34.9912 120.762 33.501 122.826 33.501C124.617 33.501 125.69 34.5332 125.909 35.8457L125.916 35.8867H124.733L124.727 35.8662C124.542 35.1416 123.886 34.5537 122.826 34.5537C121.5 34.5537 120.666 35.6201 120.666 37.2812V37.2949C120.666 38.9902 121.514 40.0771 122.826 40.0771C123.817 40.0771 124.446 39.6396 124.72 38.8193L124.733 38.7783L125.909 38.7715L125.896 38.8467C125.595 40.1797 124.604 41.1299 122.833 41.1299ZM130.407 41.0547C128.89 41.0547 128.254 40.4941 128.254 39.0859V34.6152H127.092V33.6309H128.254V31.7236H129.484V33.6309H131.098V34.6152H129.484V38.7852C129.484 39.6533 129.785 40.002 130.551 40.002C130.763 40.002 130.879 39.9951 131.098 39.9746V40.9863C130.865 41.0273 130.64 41.0547 130.407 41.0547Z" fill="#534A55"/>
</svg>
