<svg width="138" height="47" viewBox="0 0 138 47" fill="none" xmlns="http://www.w3.org/2000/svg">
<g clip-path="url(#clip0_5301_3055)">
<mask id="mask0_5301_3055" style="mask-type:luminance" maskUnits="userSpaceOnUse" x="4" y="4" width="25" height="24">
<path d="M28.3795 4H4V27.9758H28.3795V4Z" fill="white"/>
</mask>
<g mask="url(#mask0_5301_3055)">
<path d="M16.9594 21.2533L19.6228 23.8727L27.5265 16.1304C27.6532 16.0057 27.6532 15.8018 27.5265 15.6771L25.0807 13.2719L16.9594 21.2533Z" fill="#440047"/>
<path d="M18.592 6.91789L16.1272 4.4667C16.0005 4.34207 15.7931 4.34207 15.6664 4.4667L4.23027 15.7134C4.10354 15.838 4.10354 16.042 4.23027 16.1666L15.6616 27.4086C15.7698 27.3021 15.7929 27.1702 15.9545 27.2281L18.5266 24.9508L9.38824 15.9638L18.592 6.91789Z" fill="#D11067"/>
<path d="M15.6616 27.4086L6.70889 18.6041L9.38825 15.9637L18.5266 24.9507L16.0854 27.3568C15.9544 27.4857 15.7637 27.5089 15.6616 27.4086Z" fill="#D11067"/>
<path d="M22.3633 15.9443L25.0807 13.2719L19.5777 7.85999L16.8602 10.5324L22.3633 15.9443Z" fill="#440047"/>
</g>
<path d="M45.962 25.3118H40.5165L33.6733 5.26538H37.8957L41.6231 17.1214C42.6423 20.3575 42.9335 21.2452 43.2247 22.2189C43.5741 21.2452 43.8653 20.3575 44.8845 17.15L48.6701 5.26538H52.8343L45.962 25.3118Z" fill="#440047"/>
<path d="M59.1056 8.81647H55.32V5.23676H59.1056V8.81647ZM59.0182 25.3118H55.4656V11.0502H59.0182V25.3118Z" fill="#440047"/>
<path d="M72.6921 25.3118H68.3825C66.0238 25.3118 64.7134 23.9372 64.7134 21.6748V13.7708H61.5685V11.0502H64.7134V6.5827H68.2661V11.0502H72.1097V13.7708H68.2661V21.1307C68.2661 22.0471 68.6737 22.4766 69.6056 22.4766H72.6921V25.3118Z" fill="#440047"/>
<path d="M79.2705 25.7414C76.5623 25.7414 74.6404 24.1663 74.6404 21.6462C74.6404 17.6655 79.0084 16.4341 83.755 16.0046V15.5177C83.755 14.1145 82.9687 13.2553 81.1051 13.2553C78.9502 13.2553 78.0475 14.4008 77.6689 15.6609L74.4366 14.8304C74.7569 12.7112 77.0283 10.6207 81.1051 10.6207C85.0945 10.6207 87.2785 12.4535 87.2785 15.9473V21.7035C87.2785 22.3908 87.395 22.5626 88.1521 22.5626H89.4916V25.3118H86.7835C84.9489 25.3118 84.3083 24.4527 84.1335 23.1926C83.2599 24.5386 81.7166 25.7414 79.2705 25.7414ZM80.4353 23.1067C82.1243 23.1067 83.755 21.9898 83.755 19.4411V18.2956C80.7847 18.6106 78.2513 19.2693 78.2513 21.3312C78.2513 22.4194 78.9793 23.1067 80.4353 23.1067Z" fill="#440047"/>
<path d="M95.3894 25.3118H91.8659V5.26538H95.3894V25.3118Z" fill="#440047"/>
<path d="M103.326 8.81647H99.5401V5.23676H103.326V8.81647ZM103.238 25.3118H99.6857V11.0502H103.238V25.3118Z" fill="#440047"/>
<path d="M116.913 25.3118H112.603C110.244 25.3118 108.934 23.9372 108.934 21.6748V13.7708H105.789V11.0502H108.934V6.5827H112.486V11.0502H116.33V13.7708H112.486V21.1307C112.486 22.0471 112.894 22.4766 113.826 22.4766H116.913V25.3118Z" fill="#440047"/>
<path d="M127.014 17.1501L129.053 11.0502H132.751L126.84 27.4596C125.995 29.8652 124.83 30.8962 122.297 30.8962H118.511V28.0038H121.918C122.967 28.0038 123.433 27.6601 123.869 26.486L124.306 25.1973L117.55 11.0502H121.394L124.044 17.1787C125.122 19.6702 125.471 20.3861 125.733 20.9875L127.014 17.1501Z" fill="#440047"/>
<path d="M39.4141 41V29.7266H43.8594C46.1719 29.7266 47.6094 31.0703 47.6094 33.1641V33.1797C47.6094 34.6953 46.7969 35.9297 45.4219 36.3906L47.9531 41H45.9297L43.6328 36.6641H41.1641V41H39.4141ZM41.1641 35.2422H43.6875C45.0312 35.2422 45.8125 34.5078 45.8125 33.2266V33.2109C45.8125 31.9609 44.9844 31.1953 43.6328 31.1953H41.1641V35.2422ZM53.2188 41.1641C50.7344 41.1641 49.2344 39.4688 49.2344 36.7812V36.7734C49.2344 34.125 50.7656 32.3516 53.1328 32.3516C55.5 32.3516 56.9531 34.0625 56.9531 36.6094V37.2031H50.9375C50.9688 38.8281 51.8594 39.7734 53.2578 39.7734C54.3438 39.7734 54.9922 39.2344 55.1953 38.7969L55.2266 38.7344L56.8594 38.7266L56.8438 38.7969C56.5625 39.9141 55.3906 41.1641 53.2188 41.1641ZM53.1406 33.7422C51.9844 33.7422 51.1094 34.5312 50.9609 35.9922H55.2734C55.1406 34.4766 54.2891 33.7422 53.1406 33.7422ZM61.2969 41.1406C59.6797 41.1406 58.4844 40.1562 58.4844 38.6172V38.6016C58.4844 37.0859 59.625 36.2031 61.6484 36.0781L63.9453 35.9453V35.1953C63.9453 34.2656 63.3594 33.75 62.2109 33.75C61.2734 33.75 60.6562 34.0938 60.4531 34.6953L60.4453 34.7266H58.8125L58.8203 34.6719C59.0234 33.2812 60.3594 32.3516 62.2891 32.3516C64.4219 32.3516 65.625 33.4141 65.625 35.1953V41H63.9453V39.7969H63.8125C63.3125 40.6562 62.4219 41.1406 61.2969 41.1406ZM60.1719 38.5469C60.1719 39.3281 60.8359 39.7891 61.75 39.7891C63.0156 39.7891 63.9453 38.9609 63.9453 37.8672V37.1406L61.875 37.2734C60.7031 37.3438 60.1719 37.7656 60.1719 38.5312V38.5469ZM71.5859 41.1641C69.1094 41.1641 67.5938 39.4766 67.5938 36.7344V36.7188C67.5938 34.0312 69.1016 32.3516 71.5781 32.3516C73.7109 32.3516 74.9844 33.5547 75.2188 35.2031V35.2422L73.5938 35.25L73.5859 35.2266C73.3984 34.3906 72.7109 33.7656 71.5859 33.7656C70.1719 33.7656 69.3203 34.8906 69.3203 36.7188V36.7344C69.3203 38.6094 70.1875 39.75 71.5859 39.75C72.6484 39.75 73.3047 39.2656 73.5781 38.3516L73.5938 38.3125H75.2188L75.2031 38.3828C74.8984 40.0312 73.6875 41.1641 71.5859 41.1641ZM80.4688 41.0547C78.6016 41.0547 77.8359 40.3984 77.8359 38.7656V33.8516H76.5078V32.5156H77.8359V30.375H79.5625V32.5156H81.3828V33.8516H79.5625V38.3594C79.5625 39.2734 79.9062 39.6484 80.7422 39.6484C81 39.6484 81.1484 39.6406 81.3828 39.6172V40.9688C81.1094 41.0156 80.7969 41.0547 80.4688 41.0547Z" fill="#534A55"/>
</g>
<defs>
<clipPath id="clip0_5301_3055">
<rect width="138" height="47" fill="white"/>
</clipPath>
</defs>
</svg>
