<svg width="138" height="47" viewBox="0 0 138 47" fill="none" xmlns="http://www.w3.org/2000/svg">
<g clip-path="url(#clip0_5301_3012)">
<mask id="mask0_5301_3012" style="mask-type:luminance" maskUnits="userSpaceOnUse" x="4" y="4" width="25" height="24">
<path d="M28.3795 4H4V27.9758H28.3795V4Z" fill="white"/>
</mask>
<g mask="url(#mask0_5301_3012)">
<path d="M16.9594 21.2534L19.6228 23.8727L27.5265 16.1304C27.6532 16.0058 27.6532 15.8019 27.5265 15.6772L25.0807 13.272L16.9594 21.2534Z" fill="#440047"/>
<path d="M18.592 6.91795L16.1272 4.46676C16.0005 4.34213 15.7931 4.34213 15.6664 4.46676L4.23027 15.7135C4.10354 15.8381 4.10354 16.042 4.23027 16.1667L15.6616 27.4087C15.7698 27.3022 15.7929 27.1702 15.9545 27.2282L18.5266 24.9508L9.38824 15.9638L18.592 6.91795Z" fill="#D11067"/>
<path d="M15.6616 27.4087L6.70889 18.6043L9.38825 15.9639L18.5266 24.9509L16.0854 27.357C15.9544 27.4858 15.7637 27.5091 15.6616 27.4087Z" fill="#D11067"/>
<path d="M22.3633 15.9444L25.0807 13.272L19.5777 7.86011L16.8602 10.5325L22.3633 15.9444Z" fill="#440047"/>
</g>
<path d="M45.962 25.3118H40.5165L33.6733 5.26538H37.8957L41.6231 17.1214C42.6423 20.3575 42.9335 21.2452 43.2247 22.2189C43.5741 21.2452 43.8653 20.3575 44.8845 17.15L48.6701 5.26538H52.8343L45.962 25.3118Z" fill="#440047"/>
<path d="M59.1056 8.81641H55.32V5.23669H59.1056V8.81641ZM59.0182 25.3117H55.4656V11.0502H59.0182V25.3117Z" fill="#440047"/>
<path d="M72.6921 25.3118H68.3825C66.0238 25.3118 64.7134 23.9372 64.7134 21.6748V13.7708H61.5685V11.0503H64.7134V6.58276H68.2661V11.0503H72.1097V13.7708H68.2661V21.1307C68.2661 22.0471 68.6737 22.4767 69.6056 22.4767H72.6921V25.3118Z" fill="#440047"/>
<path d="M79.2705 25.7413C76.5623 25.7413 74.6404 24.1662 74.6404 21.6461C74.6404 17.6655 79.0084 16.4341 83.755 16.0045V15.5177C83.755 14.1144 82.9687 13.2553 81.1051 13.2553C78.9502 13.2553 78.0475 14.4008 77.6689 15.6608L74.4366 14.8304C74.7569 12.7112 77.0283 10.6206 81.1051 10.6206C85.0945 10.6206 87.2785 12.4534 87.2785 15.9472V21.7034C87.2785 22.3907 87.395 22.5625 88.1521 22.5625H89.4916V25.3118H86.7835C84.9489 25.3118 84.3083 24.4526 84.1335 23.1926C83.2599 24.5385 81.7166 25.7413 79.2705 25.7413ZM80.4353 23.1067C82.1243 23.1067 83.755 21.9898 83.755 19.441V18.2955C80.7847 18.6105 78.2513 19.2692 78.2513 21.3311C78.2513 22.4193 78.9793 23.1067 80.4353 23.1067Z" fill="#440047"/>
<path d="M95.3894 25.3118H91.8659V5.26538H95.3894V25.3118Z" fill="#440047"/>
<path d="M103.326 8.81641H99.5401V5.23669H103.326V8.81641ZM103.238 25.3117H99.6857V11.0502H103.238V25.3117Z" fill="#440047"/>
<path d="M116.913 25.3118H112.603C110.244 25.3118 108.934 23.9372 108.934 21.6748V13.7708H105.789V11.0503H108.934V6.58276H112.486V11.0503H116.33V13.7708H112.486V21.1307C112.486 22.0471 112.894 22.4767 113.826 22.4767H116.913V25.3118Z" fill="#440047"/>
<path d="M127.014 17.15L129.053 11.0502H132.751L126.84 27.4596C125.995 29.8652 124.83 30.8961 122.297 30.8961H118.511V28.0037H121.918C122.967 28.0037 123.433 27.66 123.869 26.4859L124.306 25.1972L117.55 11.0502H121.394L124.044 17.1786C125.122 19.6701 125.471 20.3861 125.733 20.9875L127.014 17.15Z" fill="#440047"/>
<path d="M38.5469 41L42.6172 29.7266H44.5078L48.5781 41H46.7344L45.7188 37.9531H41.4062L40.3828 41H38.5469ZM43.4922 31.7031L41.875 36.5469H45.25L43.625 31.7031H43.4922ZM50.3438 41V32.5156H52.0391V33.8047H52.1641C52.5781 32.8984 53.3906 32.3516 54.625 32.3516C56.5234 32.3516 57.5703 33.4844 57.5703 35.5078V41H55.8828V35.9062C55.8828 34.5 55.2969 33.8047 54.0547 33.8047C52.8125 33.8047 52.0391 34.6562 52.0391 36.0234V41H50.3438ZM63.5234 43.9922C61.3672 43.9922 60.0391 43.0469 59.8359 41.6328L59.8516 41.6172H61.5625L61.5703 41.6328C61.7109 42.2188 62.3984 42.6328 63.5469 42.6328C64.9453 42.6328 65.7734 41.9766 65.7734 40.8203V39.1484H65.6484C65.1328 40.0703 64.1953 40.5859 63.0312 40.5859C60.8516 40.5859 59.5078 38.9062 59.5078 36.5156V36.5C59.5078 34.0781 60.8594 32.3672 63.0625 32.3672C64.25 32.3672 65.1719 32.9531 65.6641 33.9062H65.7656V32.5156H67.4531V40.8281C67.4531 42.7578 65.9297 43.9922 63.5234 43.9922ZM63.5 39.1875C64.9375 39.1875 65.8047 38.0938 65.8047 36.5078V36.4922C65.8047 34.9141 64.9297 33.8047 63.5 33.8047C62.0547 33.8047 61.2422 34.9141 61.2422 36.4922V36.5078C61.2422 38.0859 62.0547 39.1875 63.5 39.1875ZM72.7188 41.1641C70.8047 41.1641 69.8125 40.0156 69.8125 38.0078V32.5156H71.5078V37.6094C71.5078 39.0156 72.0234 39.7109 73.2656 39.7109C74.625 39.7109 75.3516 38.8594 75.3516 37.4922V32.5156H77.0391V41H75.3516V39.7188H75.2188C74.8125 40.6328 73.9531 41.1641 72.7188 41.1641ZM79.5625 41V29.1875H81.2578V41H79.5625ZM86.1094 41.1406C84.4922 41.1406 83.2969 40.1562 83.2969 38.6172V38.6016C83.2969 37.0859 84.4375 36.2031 86.4609 36.0781L88.7578 35.9453V35.1953C88.7578 34.2656 88.1719 33.75 87.0234 33.75C86.0859 33.75 85.4688 34.0938 85.2656 34.6953L85.2578 34.7266H83.625L83.6328 34.6719C83.8359 33.2812 85.1719 32.3516 87.1016 32.3516C89.2344 32.3516 90.4375 33.4141 90.4375 35.1953V41H88.7578V39.7969H88.625C88.125 40.6562 87.2344 41.1406 86.1094 41.1406ZM84.9844 38.5469C84.9844 39.3281 85.6484 39.7891 86.5625 39.7891C87.8281 39.7891 88.7578 38.9609 88.7578 37.8672V37.1406L86.6875 37.2734C85.5156 37.3438 84.9844 37.7656 84.9844 38.5312V38.5469ZM92.8281 41V32.5156H94.5234V33.7969H94.6484C94.9531 32.8984 95.7422 32.3672 96.875 32.3672C97.1484 32.3672 97.4453 32.4062 97.6172 32.4453V34.0078C97.3125 33.9453 97.0234 33.9062 96.7031 33.9062C95.4062 33.9062 94.5234 34.7031 94.5234 35.9297V41H92.8281Z" fill="#534A55"/>
</g>
<defs>
<clipPath id="clip0_5301_3012">
<rect width="138" height="47" fill="white"/>
</clipPath>
</defs>
</svg>
