<svg width="180" height="47" viewBox="0 0 180 47" fill="none" xmlns="http://www.w3.org/2000/svg">
<mask id="mask0_5301_3054" style="mask-type:luminance" maskUnits="userSpaceOnUse" x="4" y="4" width="25" height="24">
<path d="M28.3795 4H4V27.9758H28.3795V4Z" fill="white"/>
</mask>
<g mask="url(#mask0_5301_3054)">
<path d="M16.9594 21.2534L19.6228 23.8727L27.5265 16.1304C27.6532 16.0058 27.6532 15.8019 27.5265 15.6772L25.0807 13.272L16.9594 21.2534Z" fill="#440047"/>
<path d="M18.592 6.91795L16.1272 4.46676C16.0005 4.34213 15.7931 4.34213 15.6664 4.46676L4.23027 15.7135C4.10354 15.8381 4.10354 16.042 4.23027 16.1667L15.6616 27.4087C15.7698 27.3022 15.7929 27.1702 15.9545 27.2282L18.5266 24.9508L9.38824 15.9638L18.592 6.91795Z" fill="#D11067"/>
<path d="M15.6616 27.4087L6.70889 18.6043L9.38825 15.9639L18.5266 24.9509L16.0854 27.357C15.9544 27.4858 15.7637 27.5091 15.6616 27.4087Z" fill="#D11067"/>
<path d="M22.3633 15.9444L25.0807 13.272L19.5777 7.86011L16.8602 10.5325L22.3633 15.9444Z" fill="#440047"/>
</g>
<path d="M45.962 25.3118H40.5165L33.6733 5.26538H37.8957L41.6231 17.1214C42.6423 20.3575 42.9335 21.2452 43.2247 22.2189C43.5741 21.2452 43.8653 20.3575 44.8845 17.15L48.6701 5.26538H52.8343L45.962 25.3118Z" fill="#440047"/>
<path d="M59.1056 8.81641H55.32V5.23669H59.1056V8.81641ZM59.0182 25.3117H55.4656V11.0502H59.0182V25.3117Z" fill="#440047"/>
<path d="M72.6921 25.3118H68.3825C66.0238 25.3118 64.7134 23.9372 64.7134 21.6748V13.7708H61.5685V11.0503H64.7134V6.58276H68.2661V11.0503H72.1097V13.7708H68.2661V21.1307C68.2661 22.0471 68.6737 22.4767 69.6056 22.4767H72.6921V25.3118Z" fill="#440047"/>
<path d="M79.2705 25.7413C76.5623 25.7413 74.6404 24.1662 74.6404 21.6461C74.6404 17.6655 79.0084 16.4341 83.755 16.0045V15.5177C83.755 14.1144 82.9687 13.2553 81.1051 13.2553C78.9502 13.2553 78.0475 14.4008 77.6689 15.6608L74.4366 14.8304C74.7569 12.7112 77.0283 10.6206 81.1051 10.6206C85.0945 10.6206 87.2785 12.4534 87.2785 15.9472V21.7034C87.2785 22.3907 87.395 22.5625 88.1521 22.5625H89.4916V25.3118H86.7835C84.9489 25.3118 84.3083 24.4526 84.1335 23.1926C83.2599 24.5385 81.7166 25.7413 79.2705 25.7413ZM80.4353 23.1067C82.1243 23.1067 83.755 21.9898 83.755 19.441V18.2955C80.7847 18.6105 78.2513 19.2692 78.2513 21.3311C78.2513 22.4193 78.9793 23.1067 80.4353 23.1067Z" fill="#440047"/>
<path d="M95.3894 25.3118H91.8659V5.26538H95.3894V25.3118Z" fill="#440047"/>
<path d="M103.326 8.81641H99.5401V5.23669H103.326V8.81641ZM103.238 25.3117H99.6857V11.0502H103.238V25.3117Z" fill="#440047"/>
<path d="M116.913 25.3118H112.603C110.244 25.3118 108.934 23.9372 108.934 21.6748V13.7708H105.789V11.0503H108.934V6.58276H112.486V11.0503H116.33V13.7708H112.486V21.1307C112.486 22.0471 112.894 22.4767 113.826 22.4767H116.913V25.3118Z" fill="#440047"/>
<path d="M127.014 17.15L129.053 11.0502H132.751L126.84 27.4596C125.995 29.8652 124.83 30.8961 122.297 30.8961H118.511V28.0037H121.918C122.967 28.0037 123.433 27.66 123.869 26.4859L124.306 25.1972L117.55 11.0502H121.394L124.044 17.1786C125.122 19.6701 125.471 20.3861 125.733 20.9875L127.014 17.15Z" fill="#440047"/>
<path d="M37.6367 41.1299C35.9961 41.1299 34.8682 40.3369 34.7314 39.1201H35.9482C36.1465 39.7354 36.7344 40.1387 37.6777 40.1387C38.6689 40.1387 39.373 39.667 39.373 38.9971V38.9834C39.373 38.4844 38.9971 38.1357 38.0879 37.917L36.9463 37.6436C35.5654 37.3154 34.9434 36.7139 34.9434 35.6543V35.6475C34.9434 34.4238 36.1191 33.501 37.6846 33.501C39.2295 33.501 40.3027 34.2734 40.4668 35.4766H39.2979C39.1406 34.8955 38.5664 34.4922 37.6777 34.4922C36.8027 34.4922 36.1602 34.9434 36.1602 35.5928V35.6064C36.1602 36.1055 36.5293 36.4199 37.3975 36.6318L38.5322 36.9053C39.9199 37.2402 40.5898 37.8418 40.5898 38.8945V38.9082C40.5898 40.2207 39.3115 41.1299 37.6367 41.1299ZM42.5039 41V30.7051H43.6934V34.7383H43.8027C44.1719 33.959 44.8623 33.501 45.9492 33.501C47.6035 33.501 48.5264 34.4785 48.5264 36.2285V41H47.3369V36.5156C47.3369 35.1895 46.79 34.5537 45.6143 34.5537C44.4385 34.5537 43.6934 35.3467 43.6934 36.6387V41H42.5039ZM52.7031 41.1299C51.3018 41.1299 50.2422 40.2822 50.2422 38.9424V38.9287C50.2422 37.6162 51.2129 36.8574 52.9287 36.7549L55.041 36.625V35.9551C55.041 35.0459 54.4873 34.5537 53.3867 34.5537C52.5049 34.5537 51.9238 34.8818 51.7324 35.4561L51.7256 35.4766H50.5361L50.543 35.4355C50.7344 34.2803 51.8555 33.501 53.4277 33.501C55.2256 33.501 56.2305 34.4238 56.2305 35.9551V41H55.041V39.9131H54.9316C54.4668 40.6992 53.6943 41.1299 52.7031 41.1299ZM51.459 38.915C51.459 39.6602 52.0947 40.0977 52.9492 40.0977C54.1592 40.0977 55.041 39.3047 55.041 38.252V37.582L53.0723 37.7051C51.9512 37.7734 51.459 38.1699 51.459 38.9014V38.915ZM61.125 41.1299C59.2588 41.1299 58.0352 39.6191 58.0352 37.3223V37.3086C58.0352 34.998 59.252 33.501 61.125 33.501C62.1367 33.501 63.0186 34.0068 63.4219 34.793H63.5312V30.7051H64.7207V41H63.5312V39.8242H63.4219C62.9707 40.6445 62.1504 41.1299 61.125 41.1299ZM61.3984 40.0771C62.7383 40.0771 63.5586 39.0244 63.5586 37.3223V37.3086C63.5586 35.6064 62.7383 34.5537 61.3984 34.5537C60.0518 34.5537 59.252 35.5928 59.252 37.3086V37.3223C59.252 39.0381 60.0518 40.0771 61.3984 40.0771ZM70.0186 41.1299C67.9541 41.1299 66.6348 39.6328 66.6348 37.2949V37.2812C66.6348 34.9912 67.9473 33.501 70.0117 33.501C71.8027 33.501 72.876 34.5332 73.0947 35.8457L73.1016 35.8867H71.9189L71.9121 35.8662C71.7275 35.1416 71.0713 34.5537 70.0117 34.5537C68.6855 34.5537 67.8516 35.6201 67.8516 37.2812V37.2949C67.8516 38.9902 68.6992 40.0771 70.0117 40.0771C71.0029 40.0771 71.6318 39.6396 71.9053 38.8193L71.9189 38.7783L73.0947 38.7715L73.0811 38.8467C72.7803 40.1797 71.7891 41.1299 70.0186 41.1299ZM74.8379 41V33.6309H76.0273V34.7383H76.1367C76.5059 33.959 77.1963 33.501 78.2832 33.501C79.9375 33.501 80.8604 34.4785 80.8604 36.2285V41H79.6709V36.5156C79.6709 35.1895 79.124 34.5537 77.9482 34.5537C76.7725 34.5537 76.0273 35.3467 76.0273 36.6387V41H74.8379ZM90.1025 30.7051L86.9854 43.4609H85.8438L88.9609 30.7051H90.1025ZM94.5186 41L98.1553 31.1357H99.3721L103.009 41H101.717L100.726 38.1768H96.8018L95.8105 41H94.5186ZM98.709 32.7285L97.1641 37.1309H100.363L98.8184 32.7285H98.709ZM104.588 41V33.6309H105.777V34.7383H105.887C106.256 33.959 106.946 33.501 108.033 33.501C109.688 33.501 110.61 34.4785 110.61 36.2285V41H109.421V36.5156C109.421 35.1895 108.874 34.5537 107.698 34.5537C106.522 34.5537 105.777 35.3467 105.777 36.6387V41H104.588ZM115.799 43.5977C114.021 43.5977 112.887 42.7979 112.702 41.5879L112.716 41.5811H113.946L113.953 41.5879C114.083 42.1484 114.739 42.5449 115.799 42.5449C117.118 42.5449 117.904 41.9229 117.904 40.8359V39.3457H117.795C117.33 40.1592 116.496 40.6172 115.484 40.6172C113.577 40.6172 112.395 39.1406 112.395 37.0762V37.0625C112.395 34.998 113.584 33.501 115.512 33.501C116.551 33.501 117.357 34.0137 117.809 34.8477H117.891V33.6309H119.08V40.8975C119.08 42.5449 117.809 43.5977 115.799 43.5977ZM115.744 39.5645C117.111 39.5645 117.932 38.5391 117.932 37.0762V37.0625C117.932 35.5996 117.104 34.5537 115.744 34.5537C114.377 34.5537 113.611 35.5996 113.611 37.0625V37.0762C113.611 38.5391 114.377 39.5645 115.744 39.5645ZM123.763 41.1299C122.088 41.1299 121.227 40.1455 121.227 38.4023V33.6309H122.416V38.1152C122.416 39.4414 122.895 40.0771 124.07 40.0771C125.369 40.0771 126.06 39.2842 126.06 37.9922V33.6309H127.249V41H126.06V39.8994H125.95C125.588 40.6855 124.843 41.1299 123.763 41.1299ZM129.539 41V30.7051H130.729V41H129.539ZM135.035 41.1299C133.634 41.1299 132.574 40.2822 132.574 38.9424V38.9287C132.574 37.6162 133.545 36.8574 135.261 36.7549L137.373 36.625V35.9551C137.373 35.0459 136.819 34.5537 135.719 34.5537C134.837 34.5537 134.256 34.8818 134.064 35.4561L134.058 35.4766H132.868L132.875 35.4355C133.066 34.2803 134.188 33.501 135.76 33.501C137.558 33.501 138.562 34.4238 138.562 35.9551V41H137.373V39.9131H137.264C136.799 40.6992 136.026 41.1299 135.035 41.1299ZM133.791 38.915C133.791 39.6602 134.427 40.0977 135.281 40.0977C136.491 40.0977 137.373 39.3047 137.373 38.252V37.582L135.404 37.7051C134.283 37.7734 133.791 38.1699 133.791 38.9014V38.915ZM140.736 41V33.6309H141.926V34.7246H142.035C142.315 33.9521 143.006 33.501 144.004 33.501C144.229 33.501 144.482 33.5283 144.599 33.5488V34.7041C144.353 34.6631 144.127 34.6357 143.867 34.6357C142.732 34.6357 141.926 35.3535 141.926 36.4336V41H140.736Z" fill="#534A55"/>
</svg>
